<svg xmlns="http://www.w3.org/2000/svg" width="48.43" height="19.885" viewBox="0 0 48.43 19.885">
  <path id="XMLID_34_" d="M8.908,2.564A2.975,2.975,0,0,1,6.524,3.689,3.373,3.373,0,0,1,7.375,1.22,3.556,3.556,0,0,1,9.74,0a3.592,3.592,0,0,1-.832,2.564m.823,1.305c-1.315-.076-2.441.747-3.065.747s-1.589-.71-2.63-.691a3.886,3.886,0,0,0-3.3,2.006c-1.419,2.441-.369,6.054,1,8.041.672.984,1.476,2.062,2.535,2.024,1-.038,1.4-.653,2.611-.653s1.57.653,2.63.634c1.1-.019,1.788-.984,2.46-1.968a8.629,8.629,0,0,0,1.1-2.261A3.564,3.564,0,0,1,10.932,8.5a3.64,3.64,0,0,1,1.731-3.046A3.749,3.749,0,0,0,9.731,3.869m7.6-2.743V15.874h2.289V10.832h3.169a4.681,4.681,0,0,0,4.929-4.862,4.626,4.626,0,0,0-4.853-4.844H17.327Zm2.289,1.93h2.639c1.987,0,3.122,1.06,3.122,2.923s-1.135,2.933-3.131,2.933h-2.63ZM31.9,15.988A3.788,3.788,0,0,0,35.273,14.1h.047v1.769h2.119V8.533c0-2.129-1.7-3.5-4.323-3.5-2.431,0-4.229,1.391-4.295,3.3h2.062a2.01,2.01,0,0,1,2.166-1.5c1.4,0,2.185.653,2.185,1.854V9.5l-2.857.17c-2.658.161-4.1,1.249-4.1,3.141C28.282,14.72,29.767,15.988,31.9,15.988Zm.615-1.75c-1.22,0-2-.587-2-1.485,0-.927.747-1.466,2.176-1.551l2.545-.161v.832A2.488,2.488,0,0,1,32.511,14.237Zm7.757,5.648c2.233,0,3.283-.851,4.2-3.434L48.489,5.175H46.162l-2.7,8.713h-.047l-2.7-8.713H38.329l3.879,10.737L42,16.565a1.82,1.82,0,0,1-1.93,1.533c-.18,0-.53-.019-.672-.038v1.769A6.306,6.306,0,0,0,40.268,19.885Z" transform="translate(-0.059)" fill="#28121b"/>
</svg>
